<?xml version="1.0" encoding="utf-8"?>
<!-- Generator: Adobe Illustrator 24.3.0, SVG Export Plug-In . SVG Version: 6.00 Build 0)  -->
<svg version="1.0" id="katman_1" xmlns="http://www.w3.org/2000/svg" xmlns:xlink="http://www.w3.org/1999/xlink" x="0px" y="0px"
	 viewBox="0 0 841.89 595.28" style="enable-background:new 0 0 841.89 595.28;" xml:space="preserve">
<style type="text/css">
	.st0{fill-rule:evenodd;clip-rule:evenodd;fill:#FBFBFB;}
	.st1{fill-rule:evenodd;clip-rule:evenodd;}
	.st2{fill:#CCCED3;}
	.st3{fill:#FBFBFB;}
	.st4{fill:#010202;}
	.st5{fill-rule:evenodd;clip-rule:evenodd;fill:#CCCED3;}
	.st6{fill-rule:evenodd;clip-rule:evenodd;fill:#010202;}
	.st7{fill:none;stroke:#010202;stroke-width:0.2;}
	.st8{filter:url(#Adobe_OpacityMaskFilter);}
	.st9{mask:url(#prefix__b_9_);fill-rule:evenodd;clip-rule:evenodd;fill:#010202;}
	.st10{filter:url(#Adobe_OpacityMaskFilter_1_);}
	.st11{mask:url(#prefix__b_8_);fill:none;stroke:#010202;stroke-width:0.2;}
	.st12{filter:url(#Adobe_OpacityMaskFilter_2_);}
	.st13{mask:url(#prefix__b_7_);fill-rule:evenodd;clip-rule:evenodd;fill:#010202;}
	.st14{filter:url(#Adobe_OpacityMaskFilter_3_);}
	.st15{mask:url(#prefix__b_6_);fill:none;stroke:#010202;stroke-width:0.2;}
	.st16{filter:url(#Adobe_OpacityMaskFilter_4_);}
	.st17{mask:url(#prefix__b_5_);fill-rule:evenodd;clip-rule:evenodd;fill:#010202;}
	.st18{filter:url(#Adobe_OpacityMaskFilter_5_);}
	.st19{mask:url(#prefix__b_4_);fill:none;stroke:#010202;stroke-width:0.2;}
	.st20{filter:url(#Adobe_OpacityMaskFilter_6_);}
	.st21{mask:url(#prefix__b_3_);fill-rule:evenodd;clip-rule:evenodd;fill:#010202;}
	.st22{filter:url(#Adobe_OpacityMaskFilter_7_);}
	.st23{mask:url(#prefix__b_2_);fill:none;stroke:#010202;stroke-width:0.2;}
	.st24{fill:#FFFFFF;}
	.st25{fill-rule:evenodd;clip-rule:evenodd;fill:#FFFFFF;}
</style>
<path class="st0" d="M686.02,497.37H155.87c-11.66,0-21.21-9.54-21.21-21.21V348.93c0-11.66,9.54-21.21,21.21-21.21h530.15
	c11.66,0,21.21,9.54,21.21,21.21v127.24C707.23,487.83,697.69,497.37,686.02,497.37"/>
<g>
	<ellipse class="st1" cx="373.63" cy="440.28" rx="18.11" ry="18.04"/>
	<ellipse class="st1" cx="413.13" cy="440.28" rx="18.11" ry="18.04"/>
</g>
<g>
	<path class="st2" d="M601.67,105.14H175c-1.56,0-3.09,0-4.64,0.01c-1.3,0.01-2.59,0.03-3.9,0.05c-2.85,0.03-5.69,0.28-8.5,0.75
		c-2.81,0.48-5.52,1.37-8.06,2.66c-2.54,1.3-4.85,2.99-6.87,5c-2.02,2.01-3.71,4.33-5,6.88c-1.29,2.54-2.18,5.26-2.65,8.07
		c-0.47,2.81-0.73,5.64-0.76,8.49c-0.04,1.3-0.05,2.6-0.07,3.91v98.03c0.02,1.32,0.03,2.59,0.07,3.91c0.03,2.84,0.29,5.68,0.76,8.49
		c0.47,2.81,1.36,5.54,2.65,8.08c1.29,2.53,2.97,4.85,5,6.84c2.01,2.02,4.32,3.71,6.86,5c2.54,1.29,5.26,2.19,8.06,2.68
		c2.81,0.46,5.65,0.71,8.5,0.75c1.31,0.03,2.6,0.04,3.9,0.04c1.55,0.01,3.09,0.01,4.64,0.01h491.92c1.52,0,3.07,0,4.6-0.01
		c1.29,0,2.62-0.02,3.91-0.05c2.84-0.03,5.68-0.28,8.48-0.75c2.82-0.48,5.54-1.39,8.09-2.68c2.54-1.29,4.86-2.98,6.86-5
		c2.02-2,3.71-4.32,5.01-6.84c1.28-2.54,2.17-5.27,2.63-8.08c0.47-2.81,0.73-5.64,0.79-8.49c0.02-1.32,0.02-2.59,0.02-3.91
		c0.03-1.54,0.03-3.07,0.03-4.64v-88.76c0-1.55,0-3.09-0.03-4.63c0-1.3,0-2.6-0.02-3.91c-0.05-2.84-0.31-5.68-0.79-8.49
		c-0.46-2.81-1.35-5.53-2.63-8.07c-2.62-5.1-6.77-9.26-11.87-11.88c-2.55-1.29-5.28-2.18-8.09-2.66c-2.81-0.47-5.64-0.72-8.48-0.75
		c-1.29-0.02-2.62-0.05-3.91-0.06c-1.52-0.01-3.07-0.01-4.6-0.01H601.67z"/>
	<path class="st3" d="M170.38,271.08c-1.29,0-2.55-0.02-3.83-0.04c-2.66-0.04-5.31-0.27-7.93-0.69c-2.45-0.42-4.81-1.21-7.03-2.33
		c-2.19-1.11-4.19-2.56-5.92-4.31c-1.76-1.73-3.22-3.73-4.33-5.92c-1.12-2.21-1.9-4.58-2.3-7.03c-0.43-2.63-0.67-5.29-0.7-7.95
		c-0.03-0.89-0.07-3.87-0.07-3.87v-97.97c0,0,0.04-2.94,0.07-3.79c0.03-2.66,0.27-5.32,0.7-7.94c0.4-2.45,1.18-4.83,2.31-7.05
		c1.11-2.2,2.56-4.2,4.31-5.93c1.74-1.75,3.75-3.21,5.94-4.34c2.21-1.11,4.57-1.89,7.01-2.3c2.63-0.43,5.29-0.67,7.95-0.7l3.83-0.05
		h501.11l3.87,0.06c2.64,0.03,5.28,0.26,7.88,0.69c2.46,0.42,4.85,1.2,7.09,2.33c4.4,2.27,7.98,5.86,10.24,10.26
		c1.1,2.21,1.87,4.56,2.27,6.99c0.44,2.65,0.69,5.32,0.74,8c0.01,1.2,0.01,2.49,0.01,3.78c0.03,1.59,0.03,3.1,0.03,4.63v88.76
		c0,1.54,0,3.04-0.03,4.56c0,1.38,0,2.64-0.02,3.94c-0.05,2.63-0.29,5.26-0.72,7.86c-0.39,2.46-1.17,4.85-2.29,7.08
		c-1.12,2.17-2.57,4.16-4.31,5.88c-1.73,1.75-3.74,3.22-5.94,4.34c-2.23,1.13-4.61,1.92-7.07,2.33c-2.62,0.42-5.27,0.66-7.93,0.69
		c-1.24,0.03-2.54,0.05-3.81,0.05l-4.6,0.01L170.38,271.08L170.38,271.08z"/>
	<g>
		<path class="st4" d="M273.2,189.5c0.1-7.48,4.02-14.39,10.39-18.31c-4.04-5.77-10.56-9.3-17.6-9.52
			c-7.41-0.78-14.58,4.43-18.36,4.43c-3.85,0-9.66-4.36-15.91-4.23c-8.23,0.27-15.72,4.84-19.73,12.03
			c-8.53,14.77-2.17,36.47,6,48.41c4.09,5.85,8.87,12.37,15.12,12.14c6.12-0.25,8.4-3.9,15.79-3.9c7.31,0,9.46,3.9,15.84,3.75
			c6.56-0.1,10.7-5.87,14.64-11.77c2.94-4.17,5.2-8.77,6.7-13.64C278.28,205.6,273.21,197.96,273.2,189.5z M261.16,153.82
			c3.58-4.3,5.34-9.82,4.92-15.4c-5.47,0.57-10.52,3.19-14.15,7.32c-3.58,4.08-5.4,9.41-5.04,14.82
			C252.42,160.62,257.68,158.13,261.16,153.82L261.16,153.82z"/>
		<g>
			<path class="st4" d="M346.6,220.25h-20.07l-4.83,14.23h-8.5l19.01-52.67h8.83l19.02,52.67h-8.65L346.6,220.25z M328.6,213.68
				h15.91l-7.85-23.1h-0.22C336.45,190.58,328.6,213.68,328.6,213.68z M401.13,215.28c0,11.93-6.39,19.6-16.03,19.6
				c-4.98,0.26-9.67-2.35-12.08-6.72h-0.18v19.02h-7.88v-51.1h7.63v6.39h0.14c2.51-4.34,7.21-6.95,12.23-6.79
				C394.71,195.69,401.13,203.39,401.13,215.28L401.13,215.28z M393.03,215.28c0-7.77-4.02-12.88-10.15-12.88
				c-6.02,0-10.07,5.22-10.07,12.89c0,7.74,4.05,12.92,10.07,12.92C389.01,228.21,393.03,223.13,393.03,215.28L393.03,215.28z
				 M443.39,215.28c0,11.93-6.39,19.6-16.03,19.6c-4.98,0.26-9.67-2.35-12.08-6.72h-0.18v19.02h-7.88v-51.1h7.63v6.39h0.14
				c2.52-4.34,7.21-6.95,12.23-6.79C436.97,195.69,443.39,203.39,443.39,215.28L443.39,215.28z M435.29,215.28
				c0-7.77-4.02-12.88-10.15-12.88c-6.02,0-10.07,5.22-10.07,12.89c0,7.74,4.05,12.92,10.07,12.92
				C431.27,228.21,435.29,223.13,435.29,215.28L435.29,215.28z M471.32,219.81c0.59,5.22,5.66,8.65,12.59,8.65
				c6.64,0,11.42-3.43,11.42-8.14c0-4.09-2.88-6.53-9.71-8.21l-6.83-1.64c-9.67-2.34-14.16-6.86-14.16-14.2
				c0-9.09,7.92-15.33,19.16-15.33c11.13,0,18.76,6.24,19.02,15.33h-7.96c-0.48-5.26-4.82-8.43-11.17-8.43
				c-6.35,0-10.69,3.21-10.69,7.88c0,3.73,2.78,5.91,9.57,7.59l5.8,1.43c10.81,2.55,15.29,6.9,15.29,14.6
				c0,9.85-7.85,16.03-20.33,16.03c-11.68,0-19.57-6.03-20.08-15.55C463.25,219.81,471.32,219.81,471.32,219.81z M520.68,187v9.09
				h7.3v6.24h-7.3v21.17c0,3.29,1.46,4.82,4.67,4.82c0.87-0.02,1.73-0.08,2.59-0.18v6.2c-1.45,0.27-2.91,0.39-4.38,0.37
				c-7.77,0-10.81-2.92-10.81-10.36v-22.01h-5.59v-6.24h5.59V187H520.68L520.68,187z M532.2,215.28c0-12.08,7.12-19.67,18.21-19.67
				c11.13,0,18.22,7.59,18.22,19.67c0,12.12-7.05,19.67-18.22,19.67C539.25,234.96,532.2,227.4,532.2,215.28z M560.6,215.28
				c0-8.29-3.8-13.18-10.19-13.18c-6.38,0-10.18,4.93-10.18,13.18c0,8.32,3.8,13.17,10.18,13.17
				C556.8,228.46,560.6,223.61,560.6,215.28L560.6,215.28z M575.13,196.08h7.52v6.53h0.18c1.05-4.21,4.9-7.1,9.23-6.94
				c0.91,0,1.82,0.1,2.7,0.29v7.37c-1.15-0.35-2.34-0.51-3.54-0.48c-2.32-0.09-4.56,0.83-6.14,2.53c-1.58,1.7-2.34,4-2.07,6.31
				v22.77h-7.89V196.08L575.13,196.08z M631.11,223.2c-1.06,6.97-7.85,11.75-16.53,11.75c-11.17,0-18.1-7.48-18.1-19.49
				c0-12.04,6.97-19.86,17.77-19.86c10.62,0,17.3,7.3,17.3,18.94v2.7h-27.12v0.48c-0.25,2.86,0.73,5.69,2.71,7.77
				c1.98,2.08,4.75,3.21,7.62,3.11c3.83,0.36,7.43-1.84,8.87-5.4H631.11z M604.46,211.74h19.2c0.14-2.57-0.79-5.08-2.58-6.93
				c-1.79-1.85-4.27-2.87-6.84-2.82c-2.59-0.02-5.08,1-6.92,2.84C605.49,206.66,604.45,209.15,604.46,211.74z"/>
		</g>
	</g>
	<g>
		<path class="st4" d="M327.62,142.17c3.35-0.24,6.62,1.03,8.93,3.47c2.31,2.43,3.4,5.77,2.98,9.1c0,8.09-4.37,12.73-11.91,12.73
			h-9.14v-25.31H327.62z M322.41,163.9h4.77c2.39,0.14,4.72-0.8,6.34-2.56c1.62-1.76,2.36-4.17,2.01-6.54
			c0.32-2.36-0.42-4.74-2.04-6.49s-3.93-2.69-6.31-2.56h-4.77V163.9z M343.96,157.92c-0.33-3.43,1.31-6.74,4.23-8.55
			c2.92-1.82,6.62-1.82,9.54,0c2.92,1.81,4.56,5.12,4.23,8.55c0.33,3.43-1.3,6.74-4.23,8.56c-2.92,1.82-6.62,1.82-9.55,0
			C345.27,164.67,343.63,161.35,343.96,157.92z M358.1,157.92c0-4.14-1.86-6.56-5.12-6.56c-3.28,0-5.12,2.42-5.12,6.56
			c0,4.18,1.84,6.58,5.12,6.58C356.24,164.5,358.1,162.08,358.1,157.92z M385.92,167.48h-3.91l-3.95-14.06h-0.3l-3.93,14.06h-3.87
			l-5.27-19.1h3.82l3.42,14.57h0.28l3.92-14.57h3.62l3.92,14.57h0.3l3.4-14.57h3.77L385.92,167.48z M395.59,148.38h3.63v3.03h0.28
			c0.98-2.23,3.27-3.6,5.7-3.4c1.88-0.14,3.73,0.58,5.01,1.96c1.29,1.38,1.88,3.27,1.6,5.14v12.36h-3.77v-11.42
			c0-3.07-1.33-4.59-4.12-4.59c-1.28-0.06-2.52,0.44-3.39,1.37c-0.88,0.93-1.3,2.2-1.17,3.47v11.17h-3.77V148.38z M417.82,140.92
			h3.77v26.55h-3.77V140.92z M426.82,157.92c-0.33-3.43,1.31-6.74,4.24-8.55c2.92-1.82,6.62-1.82,9.54,0
			c2.92,1.81,4.57,5.12,4.24,8.55c0.33,3.43-1.3,6.74-4.23,8.56c-2.93,1.82-6.63,1.82-9.55,0
			C428.13,164.67,426.49,161.35,426.82,157.92z M440.96,157.92c0-4.14-1.86-6.56-5.12-6.56c-3.28,0-5.12,2.42-5.12,6.56
			c0,4.18,1.84,6.58,5.12,6.58C439.1,164.5,440.96,162.08,440.96,157.92z M448.81,162.08c0-3.44,2.56-5.42,7.1-5.7l5.17-0.3v-1.65
			c0-2.02-1.33-3.15-3.91-3.15c-2.1,0-3.56,0.77-3.98,2.12h-3.65c0.38-3.28,3.47-5.38,7.8-5.38c4.79,0,7.49,2.38,7.49,6.42v13.05
			h-3.63v-2.69h-0.3c-1.23,1.96-3.43,3.11-5.74,3c-1.62,0.17-3.24-0.36-4.45-1.45C449.51,165.26,448.81,163.71,448.81,162.08z
			 M461.08,160.45v-1.6l-4.67,0.3c-2.63,0.18-3.82,1.07-3.82,2.76c0,1.72,1.49,2.72,3.54,2.72c1.21,0.12,2.43-0.25,3.36-1.04
			C460.43,162.79,461,161.66,461.08,160.45L461.08,160.45z M469.79,157.92c0-6.04,3.1-9.86,7.93-9.86c2.43-0.11,4.72,1.19,5.86,3.35
			h0.28v-10.49h3.77v26.56h-3.61v-3.02h-0.3c-1.22,2.14-3.54,3.43-6,3.33C472.86,167.79,469.79,163.97,469.79,157.92z
			 M473.68,157.92c0,4.05,1.91,6.49,5.1,6.49c3.18,0,5.14-2.47,5.14-6.47c0-3.98-1.99-6.49-5.14-6.49
			C475.62,151.45,473.68,153.9,473.68,157.92z M503.22,157.92c-0.33-3.43,1.31-6.74,4.23-8.55c2.92-1.82,6.62-1.82,9.54,0
			c2.92,1.81,4.56,5.12,4.23,8.55c0.33,3.43-1.3,6.74-4.23,8.56c-2.92,1.82-6.62,1.82-9.55,0
			C504.52,164.67,502.88,161.35,503.22,157.92z M517.36,157.92c0-4.14-1.86-6.56-5.12-6.56c-3.28,0-5.12,2.42-5.12,6.56
			c0,4.18,1.84,6.58,5.12,6.58C515.5,164.5,517.36,162.08,517.36,157.92z M526.29,148.38h3.63v3.03h0.28c0.98-2.23,3.27-3.6,5.7-3.4
			c1.88-0.14,3.73,0.58,5.01,1.96c1.29,1.38,1.87,3.27,1.6,5.14v12.36h-3.77v-11.42c0-3.07-1.33-4.59-4.12-4.59
			c-1.28-0.06-2.51,0.44-3.39,1.37c-0.87,0.93-1.3,2.2-1.16,3.47v11.17h-3.77V148.38z M563.81,143.63v4.84h4.14v3.17h-4.14v9.82
			c0,2,0.82,2.88,2.7,2.88c0.48,0,0.96-0.03,1.44-0.09v3.14c-0.68,0.12-1.36,0.19-2.05,0.2c-4.19,0-5.86-1.48-5.86-5.16v-10.79H557
			v-3.17h3.03v-4.84C560.03,143.63,563.81,143.63,563.81,143.63z M573.09,140.92h3.74v10.52h0.3c1.02-2.25,3.35-3.62,5.82-3.42
			c1.87-0.1,3.69,0.64,4.97,2.01c1.27,1.38,1.86,3.25,1.61,5.11v12.33h-3.77v-11.41c0-3.05-1.42-4.6-4.08-4.6
			c-1.31-0.11-2.6,0.37-3.53,1.31c-0.93,0.93-1.39,2.23-1.28,3.54v11.16h-3.77V140.92L573.09,140.92z M611.5,162.32
			c-1.06,3.6-4.54,5.93-8.28,5.52c-2.54,0.07-4.99-0.99-6.69-2.89c-1.7-1.9-2.48-4.45-2.13-6.97c-0.34-2.53,0.44-5.09,2.13-7
			c1.69-1.92,4.12-3,6.68-2.98c5.31,0,8.52,3.63,8.52,9.63v1.31h-13.48v0.21c-0.12,1.42,0.37,2.82,1.33,3.86
			c0.97,1.04,2.33,1.63,3.75,1.61c1.85,0.22,3.64-0.69,4.55-2.32L611.5,162.32L611.5,162.32z M598.25,156.17h9.65
			c0.09-1.3-0.36-2.57-1.26-3.51c-0.89-0.95-2.15-1.46-3.45-1.44c-1.32-0.02-2.59,0.5-3.52,1.44
			C598.74,153.58,598.23,154.85,598.25,156.17z"/>
	</g>
</g>
<path class="st5" d="M686.02,327.73H155.87c-11.66,0-21.21,9.54-21.21,21.21v127.24c0,11.66,9.54,21.21,21.21,21.21h530.15
	c11.66,0,21.21-9.54,21.21-21.21V348.93C707.23,337.27,697.69,327.73,686.02,327.73 M686.02,331.12c9.82,0,17.81,7.99,17.81,17.81
	v127.24c0,9.82-7.99,17.81-17.81,17.81H155.87c-9.82,0-17.81-7.99-17.81-17.81V348.93c0-9.82,7.99-17.81,17.81-17.81H686.02"/>
<path class="st6" d="M335.78,371.17c0,3.56-1.05,6.38-3.16,8.5c-2.4,2.51-5.51,3.76-9.35,3.76c-3.67,0-6.8-1.27-9.36-3.82
	c-2.58-2.54-3.86-5.71-3.86-9.47c0-3.77,1.28-6.93,3.86-9.47c2.56-2.54,5.69-3.82,9.36-3.82c1.82,0,3.57,0.36,5.22,1.06
	c1.66,0.71,2.99,1.66,3.98,2.84l-2.24,2.24c-1.68-2.01-4-3.02-6.97-3.02c-2.68,0-4.99,0.94-6.95,2.83
	c-1.96,1.89-2.93,4.33-2.93,7.34c0,3.01,0.98,5.45,2.93,7.34c1.95,1.89,4.27,2.82,6.95,2.82c2.84,0,5.21-0.95,7.11-2.84
	c1.23-1.24,1.94-2.95,2.13-5.15h-9.24v-3.06h12.33C335.72,369.91,335.78,370.55,335.78,371.17"/>
<path class="st7" d="M335.78,371.17c0,3.56-1.05,6.38-3.16,8.5c-2.4,2.51-5.51,3.76-9.35,3.76c-3.67,0-6.8-1.27-9.36-3.82
	c-2.58-2.54-3.86-5.71-3.86-9.47c0-3.77,1.28-6.93,3.86-9.47c2.56-2.54,5.69-3.82,9.36-3.82c1.82,0,3.57,0.36,5.22,1.06
	c1.66,0.71,2.99,1.66,3.98,2.84l-2.24,2.24c-1.68-2.01-4-3.02-6.97-3.02c-2.68,0-4.99,0.94-6.95,2.83
	c-1.96,1.89-2.93,4.33-2.93,7.34c0,3.01,0.98,5.45,2.93,7.34c1.95,1.89,4.27,2.82,6.95,2.82c2.84,0,5.21-0.95,7.11-2.84
	c1.23-1.24,1.94-2.95,2.13-5.15h-9.24v-3.06h12.33C335.72,369.91,335.78,370.55,335.78,371.17L335.78,371.17z"/>
<path class="st6" d="M355.33,360.54h-11.59v8.07h10.44v3.06h-10.44v8.07h11.59v3.13h-14.86v-25.45h14.86V360.54z"/>
<path class="st7" d="M355.33,360.54h-11.59v8.07h10.44v3.06h-10.44v8.07h11.59v3.13h-14.86v-25.45h14.86V360.54z"/>
<path class="st6" d="M369.11,382.86h-3.27v-22.32h-7.11v-3.13h17.49v3.13h-7.11V382.86z"/>
<path class="st7" d="M369.11,382.86h-3.27v-22.32h-7.11v-3.13h17.49v3.13h-7.11V382.86z"/>
<defs>
	<filter id="Adobe_OpacityMaskFilter" filterUnits="userSpaceOnUse" x="388.87" y="357.41" width="3.27" height="25.45">
		<feColorMatrix  type="matrix" values="1 0 0 0 0  0 1 0 0 0  0 0 1 0 0  0 0 0 1 0"/>
	</filter>
</defs>
<mask maskUnits="userSpaceOnUse" x="388.87" y="357.41" width="3.27" height="25.45" id="prefix__b_9_">
	<g class="st8">
	</g>
</mask>
<path class="st9" d="M388.87,382.86h3.27v-25.45h-3.27V382.86z"/>
<defs>
	<filter id="Adobe_OpacityMaskFilter_1_" filterUnits="userSpaceOnUse" x="388.77" y="357.31" width="3.47" height="25.65">
		<feColorMatrix  type="matrix" values="1 0 0 0 0  0 1 0 0 0  0 0 1 0 0  0 0 0 1 0"/>
	</filter>
</defs>
<mask maskUnits="userSpaceOnUse" x="388.77" y="357.31" width="3.47" height="25.65" id="prefix__b_8_">
	<g class="st10">
	</g>
</mask>
<path class="st11" d="M388.87,382.86h3.27v-25.45h-3.27V382.86z"/>
<defs>
	<filter id="Adobe_OpacityMaskFilter_2_" filterUnits="userSpaceOnUse" x="396.27" y="357.41" width="17.49" height="25.45">
		<feColorMatrix  type="matrix" values="1 0 0 0 0  0 1 0 0 0  0 0 1 0 0  0 0 0 1 0"/>
	</filter>
</defs>
<mask maskUnits="userSpaceOnUse" x="396.27" y="357.41" width="17.49" height="25.45" id="prefix__b_7_">
	<g class="st12">
	</g>
</mask>
<path class="st13" d="M406.65,382.86h-3.27v-22.32h-7.11v-3.13h17.49v3.13h-7.11V382.86z"/>
<defs>
	<filter id="Adobe_OpacityMaskFilter_3_" filterUnits="userSpaceOnUse" x="396.17" y="357.31" width="17.69" height="25.65">
		<feColorMatrix  type="matrix" values="1 0 0 0 0  0 1 0 0 0  0 0 1 0 0  0 0 0 1 0"/>
	</filter>
</defs>
<mask maskUnits="userSpaceOnUse" x="396.17" y="357.31" width="17.69" height="25.65" id="prefix__b_6_">
	<g class="st14">
	</g>
</mask>
<path class="st15" d="M406.65,382.86h-3.27v-22.32h-7.11v-3.13h17.49v3.13h-7.11V382.86z"/>
<defs>
	<filter id="Adobe_OpacityMaskFilter_4_" filterUnits="userSpaceOnUse" x="424.45" y="356.85" width="26.16" height="26.58">
		<feColorMatrix  type="matrix" values="1 0 0 0 0  0 1 0 0 0  0 0 1 0 0  0 0 0 1 0"/>
	</filter>
</defs>
<mask maskUnits="userSpaceOnUse" x="424.45" y="356.85" width="26.16" height="26.58" id="prefix__b_5_">
	<g class="st16">
	</g>
</mask>
<path class="st17" d="M430.61,377.44c1.88,1.91,4.19,2.86,6.92,2.86c2.72,0,5.02-0.95,6.91-2.86c1.88-1.91,2.83-4.34,2.83-7.3
	c0-2.96-0.95-5.4-2.83-7.3c-1.88-1.91-4.19-2.86-6.91-2.86c-2.73,0-5.03,0.96-6.91,2.86c-1.88,1.9-2.83,4.34-2.83,7.3
	S428.73,375.53,430.61,377.44 M446.86,379.57c-2.51,2.58-5.61,3.86-9.33,3.86c-3.72,0-6.83-1.28-9.33-3.86
	c-2.5-2.57-3.75-5.71-3.75-9.43s1.25-6.87,3.75-9.44c2.5-2.57,5.6-3.86,9.32-3.86c3.7,0,6.8,1.29,9.31,3.87
	c2.51,2.58,3.76,5.72,3.76,9.42C450.61,373.86,449.36,377,446.86,379.57"/>
<defs>
	<filter id="Adobe_OpacityMaskFilter_5_" filterUnits="userSpaceOnUse" x="424.35" y="356.75" width="26.36" height="26.78">
		<feColorMatrix  type="matrix" values="1 0 0 0 0  0 1 0 0 0  0 0 1 0 0  0 0 0 1 0"/>
	</filter>
</defs>
<mask maskUnits="userSpaceOnUse" x="424.35" y="356.75" width="26.36" height="26.78" id="prefix__b_4_">
	<g class="st18">
	</g>
</mask>
<path class="st19" d="M430.61,377.44c1.88,1.91,4.19,2.86,6.92,2.86c2.72,0,5.02-0.95,6.91-2.86c1.88-1.91,2.83-4.34,2.83-7.3
	c0-2.96-0.95-5.4-2.83-7.3c-1.88-1.91-4.19-2.86-6.91-2.86c-2.73,0-5.03,0.96-6.91,2.86c-1.88,1.9-2.83,4.34-2.83,7.3
	S428.73,375.53,430.61,377.44z M446.86,379.57c-2.51,2.58-5.61,3.86-9.33,3.86c-3.72,0-6.83-1.28-9.33-3.86
	c-2.5-2.57-3.75-5.71-3.75-9.43s1.25-6.87,3.75-9.44c2.5-2.57,5.6-3.86,9.32-3.86c3.7,0,6.8,1.29,9.31,3.87
	c2.51,2.58,3.76,5.72,3.76,9.42C450.61,373.86,449.36,377,446.86,379.57L446.86,379.57z"/>
<defs>
	<filter id="Adobe_OpacityMaskFilter_6_" filterUnits="userSpaceOnUse" x="455.2" y="357.41" width="19.62" height="25.45">
		<feColorMatrix  type="matrix" values="1 0 0 0 0  0 1 0 0 0  0 0 1 0 0  0 0 0 1 0"/>
	</filter>
</defs>
<mask maskUnits="userSpaceOnUse" x="455.2" y="357.41" width="19.62" height="25.45" id="prefix__b_3_">
	<g class="st20">
	</g>
</mask>
<path class="st21" d="M455.2,382.86v-25.45h3.98l12.37,19.79h0.14l-0.14-4.9v-14.89h3.28v25.45h-3.42l-12.94-20.76h-0.14l0.14,4.91
	v15.85H455.2z"/>
<defs>
	<filter id="Adobe_OpacityMaskFilter_7_" filterUnits="userSpaceOnUse" x="455.1" y="357.31" width="19.82" height="25.65">
		<feColorMatrix  type="matrix" values="1 0 0 0 0  0 1 0 0 0  0 0 1 0 0  0 0 0 1 0"/>
	</filter>
</defs>
<mask maskUnits="userSpaceOnUse" x="455.1" y="357.31" width="19.82" height="25.65" id="prefix__b_2_">
	<g class="st22">
	</g>
</mask>
<path class="st23" d="M455.2,382.86v-25.45h3.98l12.37,19.79h0.14l-0.14-4.9v-14.89h3.28v25.45h-3.42l-12.94-20.76h-0.14l0.14,4.91
	v15.85H455.2z"/>
<rect x="577.7" y="404.21" class="st1" width="7.91" height="53.02"/>
<polygon class="st1" points="648.98,423.31 639.91,446.3 639.63,446.3 630.22,423.31 621.69,423.31 635.81,455.43 627.76,473.31 
	636.01,473.31 657.77,423.31 "/>
<path class="st1" d="M605.05,422.15c-5.73,0-11.66,2.52-14.12,8.12l7.02,2.93c1.5-2.93,4.3-3.89,7.23-3.89
	c4.09,0,8.25,2.46,8.32,6.82v0.55c-1.44-0.82-4.5-2.04-8.25-2.04c-7.58,0-15.28,4.16-15.28,11.93c0,7.1,6.21,11.67,13.17,11.67
	c5.31,0,8.25-2.39,10.09-5.19h0.27v4.09h7.64v-20.33C621.15,427.4,614.12,422.15,605.05,422.15z"/>
<path class="st1" d="M555.94,404.21h-18.96v53.02h7.91v-20.09h11.05c8.77,0,17.39-6.35,17.39-16.47
	C573.33,410.56,564.71,404.21,555.94,404.21L555.94,404.21z"/>
<path class="st1" d="M461.61,426.27h-0.27c-1.78-2.12-5.2-4.04-9.49-4.04c-9.02,0-17.29,7.93-17.29,18.11
	c0,10.11,8.27,17.97,17.29,17.97c4.3,0,7.72-1.91,9.49-4.09h0.27v2.59c0,6.9-3.69,10.59-9.63,10.59c-4.85,0-7.86-3.48-9.09-6.42
	l-6.9,2.87c1.98,4.78,7.24,10.66,15.99,10.66c9.3,0,17.15-5.47,17.15-18.79v-32.39h-7.52V426.27L461.61,426.27z"/>
<polygon class="st1" points="474.6,457.23 482.53,457.23 482.53,404.21 474.6,404.21 474.6,457.23 "/>
<path class="st1" d="M518.81,433.72c-1.5-4.03-6.08-11.48-15.44-11.48c-9.29,0-17.01,7.32-17.01,18.04
	c0,10.11,7.65,18.04,17.9,18.04c8.27,0,13.05-5.06,15.04-8l-6.15-4.1c-2.06,3.01-4.85,4.99-8.89,4.99c-4.03,0-6.9-1.85-8.74-5.47
	l24.12-9.98L518.81,433.72L518.81,433.72z"/>
<path class="st1" d="M326.65,427.78v7.65h18.32c-0.55,4.31-1.99,7.45-4.17,9.63c-2.67,2.67-6.84,5.6-14.15,5.6
	c-11.28,0-20.09-9.09-20.09-20.36c0-11.27,8.82-20.36,20.09-20.36c6.08,0,10.52,2.39,13.8,5.46l5.4-5.4
	c-4.58-4.37-10.66-7.72-19.2-7.72c-15.44,0-28.42,12.58-28.42,28.02c0,15.44,12.98,28.01,28.42,28.01c8.34,0,14.62-2.73,19.54-7.86
	c5.05-5.06,6.63-12.16,6.63-17.9c0-1.77-0.13-3.41-0.41-4.78L326.65,427.78L326.65,427.78z"/>
<g>
</g>
<g>
	<path class="st1" d="M229.27,412.54l-51.37-51.27c-0.59,1.19-0.94,2.65-0.94,4.42v93.72c0,1.79,0.36,3.28,0.97,4.47L229.27,412.54z
		"/>
	<path class="st1" d="M178.05,360.94c0.02-0.05,0.05-0.09,0.08-0.14C178.1,360.85,178.08,360.9,178.05,360.94z"/>
	<path class="st1" d="M232.24,409.57l15.82-15.82l-60.32-34.27c-1.71-0.98-3.32-1.44-4.76-1.44c-0.73,0-1.4,0.13-2.02,0.36
		L232.24,409.57z"/>
	<path class="st1" d="M270.37,406.43l-18.49-10.51l-16.64,16.64l16.64,16.6l18.49-10.51C276.29,415.3,276.29,409.79,270.37,406.43z"
		/>
	<path class="st1" d="M232.28,415.54l-51.17,51.19c1.83,0.62,4.12,0.32,6.63-1.1l60.36-34.31L232.28,415.54z"/>
	<path class="st1" d="M178,464.04c0.24,0.44,0.51,0.84,0.82,1.18C178.51,464.86,178.22,464.48,178,464.04z"/>
</g>
<g>
	<path class="st24" d="M373.63,429.35c-5.46,0-10.18,4.44-10.18,10.93c0,6.42,4.71,10.94,10.18,10.94s10.18-4.51,10.18-10.94
		C383.81,433.79,379.1,429.35,373.63,429.35z"/>
	<polygon class="st24" points="413.13,451.22 413.13,451.22 413.13,451.22 	"/>
	<path class="st24" d="M423.31,440.28c0-6.49-4.71-10.93-10.18-10.93c-5.46,0-10.18,4.44-10.18,10.93c0,6.42,4.71,10.94,10.18,10.94
		C418.6,451.22,423.31,446.7,423.31,440.28z"/>
</g>
<path class="st0" d="M452.53,451.22c-5.46,0-10.04-4.58-10.04-10.86c0-6.36,4.58-11,10.05-11c5.39,0,9.63,4.65,9.63,11
	C462.16,446.64,457.92,451.21,452.53,451.22L452.53,451.22z"/>
<path class="st25" d="M556.14,429.76h-11.26v-18.17h11.26c5.92,0,9.28,4.9,9.28,9.08C565.41,424.78,562.05,429.76,556.14,429.76z"/>
<path class="st25" d="M494.21,439.74c-0.2-6.97,5.4-10.52,9.44-10.52c3.14,0,5.81,1.58,6.69,3.83L494.21,439.74L494.21,439.74z"/>
<path class="st0" d="M604.09,451.21c-2.59,0-6.21-1.3-6.21-4.5c0-4.09,4.5-5.66,8.39-5.66c3.47,0,5.12,0.75,7.23,1.77
	C612.89,447.73,608.66,451.21,604.09,451.21z"/>
</svg>
