<?xml version="1.0" encoding="utf-8"?>
<!-- Svg Vector Icons : http://www.onlinewebfonts.com/icon -->
<!DOCTYPE svg PUBLIC "-//W3C//DTD SVG 1.1//EN" "http://www.w3.org/Graphics/SVG/1.1/DTD/svg11.dtd">
<svg id="gear" version="1.1" xmlns="http://www.w3.org/2000/svg" xmlns:xlink="http://www.w3.org/1999/xlink" x="0px" y="0px" viewBox="0 0 256 256" enable-background="new 0 0 256 256" xml:space="preserve">
<metadata> Svg Vector Icons : http://www.onlinewebfonts.com/icon </metadata>
<g><g><g><path fill="#f09e49" d="M114.2,10.3c-2,0.6-4.5,3-5.2,4.8c-0.3,0.7-1.3,6.4-2.4,12.5c-1,6.2-2,11.3-2.1,11.3s-2.7,0.9-5.8,1.9c-3.1,1-8.4,3.2-11.8,5L80.8,49l-6.5-4.7C61.1,35,61.1,35,57.9,35c-3.8,0-5,0.9-14.9,11.1c-8.7,8.8-9.7,10.6-8.5,14.5c0.3,1.1,3.7,6.4,7.4,11.6l6.7,9.5l-2.8,5.6c-1.6,3.1-3.8,8.4-4.9,11.9c-1.9,5.7-2.2,6.4-3.5,6.7c-0.8,0.2-5.9,1-11.3,2c-5.4,0.9-10.7,2-11.6,2.5c-1,0.4-2.4,1.8-3,2.8c-1.2,1.9-1.3,2.6-1.4,14.1c-0.2,13.3,0.1,15.7,2.5,18c2,2.1,2.5,2.2,15.3,4.3c6.2,1,11.3,2,11.3,2.1c0.1,0.1,0.9,2.7,1.9,5.8c1,3.1,3.2,8.4,5,11.8l3.1,6.2l-4.7,6.5c-9.4,13.1-9.4,13.1-9.4,16.3c0,3.8,0.9,5,11.1,14.9c8.8,8.7,10.6,9.7,14.6,8.5c1.1-0.3,6.3-3.7,11.6-7.4l9.5-6.7l5.6,2.8c3.1,1.6,8.2,3.7,11.3,4.7c3.1,1,5.9,2,6.1,2.2c0.2,0.2,1.3,5.5,2.4,11.8c1.1,6.6,2.3,12.1,2.8,13.1c0.5,0.9,1.8,2.1,2.8,2.7c1.8,1,2.8,1.1,15.4,1.1c12.9,0,13.6-0.1,15.1-1.2c3.1-2.3,3.7-3.8,5.6-15.6c1-6.1,2.1-11.4,2.4-11.8c0.3-0.3,1.3-0.8,2.2-1c2.8-0.6,11.3-4,16.4-6.6c2.7-1.3,5.1-2.2,5.5-2c0.4,0.2,4.8,3.3,9.9,6.9c8.1,5.8,9.6,6.6,11.8,6.8c1.7,0.2,3.2-0.1,4.2-0.6c0.9-0.5,5.7-5,10.7-10.1c9.8-9.9,10.6-11.2,9.4-15.2c-0.3-1-3.6-6-7.3-11.2l-6.7-9.4l3.3-7c1.8-3.8,4-9.2,4.8-11.9c0.9-2.7,1.6-5,1.6-5.1c0.1-0.1,5.4-1,11.8-2.1c7.7-1.3,12.3-2.4,13.4-3c3.3-2,3.5-3.2,3.5-18.5v-13.8l-2-2.2l-2.1-2.2l-11.9-2.1c-6.5-1.2-12.1-2.2-12.3-2.4c-0.2-0.2-1.3-3-2.4-6.3c-1.1-3.3-3.3-8.5-4.9-11.7l-2.8-5.8l6.9-9.6c7.2-10,8-11.9,7.1-15.5c-0.5-2.4-18.6-20.3-21.1-21.1c-3.6-1-5.4-0.2-15.6,7l-9.7,6.9l-6.1-3c-3.4-1.7-8.9-3.9-12.3-5.1c-4.9-1.6-6.2-2.2-6.4-3.2c-0.2-0.7-1-5.7-1.9-11.3c-0.9-5.5-2.1-10.9-2.6-11.9c-0.4-1-1.8-2.4-2.8-3c-1.9-1.2-2.5-1.3-14.6-1.4C121.6,9.9,115.2,10,114.2,10.3z M142.2,61.3c17.1,3.5,33.1,14.2,42.9,28.9c12.2,18.3,14.7,42.1,6.6,62.8c-8.4,21.5-26.9,37.1-49.8,42c-8,1.7-19.3,1.7-27.3,0c-29.7-6.3-51-30.2-54.3-60.8c-2.2-21.6,7.6-45,24.8-58.8C101.6,62,121.7,57.1,142.2,61.3z"/><path fill="rgba(0, 255, 255, 0.7)" d="M116.4,82.8c-13.1,3.5-23.9,12.3-30.3,24.9c-4.3,8.5-5.6,21.4-3.3,31.2c3.3,13.9,13,25.6,26,31.7c11.9,5.5,27,5.5,38.9,0c13-6,22.7-17.7,26-31.7c1.5-6.2,1.5-15.5,0-21.7c-3.3-13.9-13-25.6-26-31.7C138.5,81.3,126.4,80.2,116.4,82.8z"/></g></g></g>
</svg>
