<?xml version="1.0" encoding="iso-8859-1"?>
<!-- Generator: Adobe Illustrator 26.0.1, SVG Export Plug-In . SVG Version: 6.00 Build 0)  -->
<svg version="1.1" id="Layer_1" xmlns="http://www.w3.org/2000/svg" xmlns:xlink="http://www.w3.org/1999/xlink" x="0px" y="0px"
	 viewBox="0 0 500 500" style="enable-background:new 0 0 500 500;" xml:space="preserve">
<g id="watermark_1_">
	
	

		<path d="M170,474.887L170,474.887c-36.389,0-65.887-29.499-65.887-65.887v0c0-36.389,29.499-65.887,65.887-65.887h0
			c36.389,0,65.887,29.499,65.887,65.887v0C235.887,445.389,206.389,474.887,170,474.887z"/>
		<g id="layer1_00000062167339502198468720000008738401857792695703_" transform="translate(52.390088,-25.058597)">
			<path id="path1009_00000039115354707184024930000007554301722266918029_" style="fill:#FFFFFF;" d="M76.11,393.784l33.408,44.67
				l-33.619,36.318h7.566l29.433-31.797l23.781,31.797h25.748l-35.288-47.182l31.292-33.806h-7.566l-27.107,29.285l-21.902-29.285
				H76.11z M87.237,399.357h11.829l52.234,69.841h-11.829L87.237,399.357z"/>
		</g>
		<path style="fill:#36B9FF;" d="M330,474.887L330,474.887c-36.389,0-65.887-29.499-65.887-65.887v0
			c0-36.389,29.499-65.887,65.887-65.887h0c36.389,0,65.887,29.499,65.887,65.887v0C395.887,445.389,366.389,474.887,330,474.887z"
			/>
		<g id="layer1_00000137112000426256110810000013812796168884121234_" transform="translate(52.390088,-25.058597)">
			<path id="path1009_00000075881386956391749750000006034067713959837090_" style="fill:#FFFFFF;" d="M236.11,393.784l33.408,44.67
				l-33.619,36.318h7.566l29.433-31.797l23.781,31.797h25.748l-35.288-47.182l31.292-33.806h-7.566l-27.107,29.285l-21.902-29.285
				H236.11z M247.237,399.357h11.829l52.234,69.841h-11.829L247.237,399.357z"/>
		</g>
	
</svg>
